<?xml version="1.0" standalone="no"?>
<!DOCTYPE svg PUBLIC "-//W3C//DTD SVG 20010904//EN"
 "http://www.w3.org/TR/2001/REC-SVG-20010904/DTD/svg10.dtd">
<svg version="1.0" xmlns="http://www.w3.org/2000/svg"
 width="1652.000000pt" height="1149.000000pt" viewBox="0 0 1652.000000 1149.000000"
 preserveAspectRatio="xMidYMid meet">

<g transform="translate(0.000000,1149.000000) scale(0.100000,-0.100000)"
fill="#000000" stroke="none">
<path d="M7040 7025 c-167 -27 -336 -92 -484 -188 -115 -76 -169 -125 -153
-141 8 -8 101 -18 262 -29 373 -26 1436 -23 1420 4 -3 4 1 10 7 13 16 6 -52
69 -150 137 -254 177 -590 253 -902 204z m347 -20 c81 -7 228 -46 321 -84 152
-63 378 -219 352 -245 -18 -18 -1147 -11 -1419 9 -118 8 -216 17 -218 19 -8 8
173 132 257 175 147 75 290 117 447 130 85 7 130 7 260 -4z"/>
<path d="M12190 6904 c-1394 -83 -2899 -168 -3540 -199 -324 -17 -527 -30
-531 -37 -14 -22 -109 -27 -619 -33 -432 -6 -567 -4 -765 9 -285 19 -346 26
-340 36 3 4 -3 11 -13 15 -30 13 -1556 114 -2032 135 -452 20 -568 19 -880 -6
-92 -7 -180 -28 -191 -46 -38 -60 74 -146 336 -258 199 -86 677 -214 909 -244
l90 -12 276 -539 c152 -297 276 -541 275 -543 -1 -1 -184 16 -407 38 -563 56
-755 54 -813 -9 -34 -39 -14 -66 83 -114 182 -91 403 -176 527 -202 134 -28
687 -98 955 -120 212 -18 200 -18 200 0 0 20 15 19 220 -10 142 -21 667 -59
678 -50 1 1 -20 17 -47 35 -76 48 -118 83 -209 173 -57 56 -78 83 -68 85 14 3
13 7 -5 30 l-21 27 27 3 c15 2 80 -1 145 -7 65 -6 224 -11 354 -11 213 0 236
2 245 17 5 10 13 15 16 11 11 -10 -188 -358 -204 -358 -11 0 -11 4 1 23 33 51
128 224 128 233 0 5 -88 10 -212 11 -117 1 -265 6 -328 11 -63 5 -117 8 -119
5 -17 -14 226 -221 312 -264 24 -13 36 -24 29 -28 -12 -7 87 -61 113 -61 31 0
13 18 -37 38 l-53 21 68 -1 68 -1 -6 -27 c-6 -26 -3 -29 41 -44 25 -8 50 -14
54 -11 3 2 15 22 25 45 l18 40 85 0 86 0 -74 -52 c-53 -37 -70 -54 -57 -56 10
-2 58 24 107 57 l88 61 96 0 c77 0 121 7 224 34 70 18 143 40 163 49 35 14 41
14 123 -14 48 -16 92 -29 99 -29 21 0 150 103 227 181 165 167 278 380 325
611 19 92 16 143 -14 233 l-20 60 22 32 c12 17 25 29 29 27 4 -3 8 -54 8 -114
0 -60 4 -111 10 -115 11 -7 17 87 12 188 -3 54 -7 67 -18 63 -10 -4 -14 4 -14
29 0 44 -11 44 -41 0 -13 -19 -27 -35 -30 -35 -18 0 -16 35 2 77 12 27 26 59
32 73 l10 25 6 -30 c3 -16 11 -29 16 -27 10 3 10 44 0 71 -5 13 -8 13 -15 2
-5 -10 -13 5 -25 48 -10 34 -21 64 -26 66 -4 3 -29 -35 -56 -85 l-48 -90 -57
0 -57 0 14 47 c8 26 12 50 9 53 -3 3 -59 4 -124 3 -128 -3 -159 5 -251 62
l-43 28 80 29 c137 50 275 78 385 78 l99 0 -44 73 c-25 39 -59 88 -78 108
l-33 36 -395 -9 c-497 -11 -1046 -2 -1283 21 l-178 17 -29 -33 c-69 -78 -169
-252 -199 -345 -7 -21 -19 -38 -26 -38 -18 0 -42 -79 -60 -200 -19 -123 -19
-146 -1 -131 7 6 16 42 20 83 6 69 40 226 51 237 7 6 178 2 221 -5 31 -6 30
-7 -128 -161 -87 -86 -156 -158 -153 -161 2 -2 80 68 172 158 l168 162 95 -6
c52 -3 126 -6 163 -6 38 0 67 -4 65 -9 -1 -5 -140 -115 -308 -244 -257 -198
-308 -233 -324 -225 -13 7 -21 6 -26 -2 -6 -9 -13 -3 -24 19 -9 17 -20 31 -24
31 -5 0 -17 6 -27 14 -18 13 -18 15 11 39 l29 25 5 -45 c8 -75 30 -67 29 11
-1 58 -3 65 -20 63 -11 -2 -35 -18 -53 -36 -19 -18 -39 -32 -44 -30 -20 8
-751 454 -752 459 0 3 69 0 153 -7 211 -17 207 -17 207 7 0 24 -6 24 65 0 45
-16 107 -23 263 -32 119 -6 206 -7 211 -2 4 5 22 45 41 89 42 98 89 181 147
258 23 31 43 59 43 61 0 2 -71 6 -157 10 -87 4 -282 16 -433 26 -852 60 -1584
107 -1830 115 -183 7 -477 -7 -509 -25 -15 -7 -25 -5 -43 9 -12 11 -21 22 -18
25 3 3 42 12 85 20 l80 15 -75 -4 c-55 -3 -67 -2 -46 5 69 22 522 54 634 45
31 -3 185 -10 342 -15 445 -16 2041 -125 2050 -140 26 -43 263 -55 1057 -55
687 0 691 0 710 21 20 23 7 22 958 64 248 11 482 22 520 25 39 3 255 14 480
25 517 26 1472 78 1545 85 127 12 627 35 775 35 179 0 465 -15 595 -31 134
-16 230 -58 230 -100 0 -30 -17 -30 -23 0 -11 54 -105 73 -457 92 -237 13
-568 8 -1015 -16 -364 -19 -843 -43 -1120 -56 -121 -5 -321 -16 -445 -24 -124
-7 -286 -16 -360 -20 -74 -3 -216 -10 -315 -15 -99 -6 -315 -15 -480 -20 -447
-15 -857 -41 -872 -55 -9 -10 -6 -18 15 -37 15 -14 34 -28 43 -31 34 -12 152
-195 138 -213 -10 -12 20 -94 35 -94 9 0 4 43 -9 73 -6 14 -2 17 29 17 20 0
36 -2 36 -5 0 -3 -9 -23 -19 -44 l-20 -38 24 -64 23 -64 14 35 c8 19 27 67 42
106 l28 72 87 4 c47 3 88 4 90 2 2 -2 -47 -72 -109 -156 -63 -84 -117 -157
-121 -163 -4 -5 -4 -27 0 -48 l6 -38 153 205 c144 194 154 206 185 206 18 0
47 -4 66 -10 31 -9 791 -499 791 -510 0 -3 -140 -73 -310 -157 -254 -124 -310
-148 -314 -135 -3 10 -30 132 -62 272 -66 297 -88 374 -116 402 l-20 20 -30
-29 c-16 -15 -36 -44 -44 -63 -21 -48 -88 -350 -109 -485 -9 -60 -19 -120 -21
-133 -4 -22 -10 -18 -80 47 -72 67 -94 78 -94 46 0 -12 39 -48 235 -218 17
-15 26 -26 20 -26 -5 0 -64 47 -129 104 -66 58 -121 103 -124 100 -5 -5 -52
-183 -52 -196 0 -4 36 -28 80 -54 44 -26 80 -49 80 -52 0 -2 -3 -2 -7 0 -5 2
-41 23 -81 47 -41 23 -77 38 -81 34 -4 -5 -18 -34 -30 -64 -73 -178 -223 -370
-385 -492 -45 -33 -79 -64 -76 -67 2 -3 124 -96 270 -206 l265 -201 66 -109
c38 -64 79 -118 96 -130 17 -11 45 -48 63 -83 40 -77 79 -112 127 -112 78 0
122 56 143 183 26 157 -4 323 -70 389 -33 34 -43 38 -87 38 -65 0 -96 -24
-121 -93 -23 -61 -50 -72 -88 -36 -23 21 -196 296 -210 333 -5 14 8 16 127 16
140 0 182 8 301 53 l66 25 43 -121 c55 -158 74 -199 98 -221 19 -17 22 -17 44
-3 54 35 47 217 -8 217 -17 0 -55 -78 -55 -115 0 -16 -3 -25 -7 -21 -4 3 -6
27 -4 53 1 33 8 51 24 65 l22 19 -23 -11 c-26 -13 -25 -14 -46 79 l-15 63 47
-7 c26 -3 110 -27 187 -53 l140 -46 340 -4 c352 -3 807 16 827 36 7 7 6 17 -2
31 -21 41 1 39 94 -5 l93 -44 374 0 c754 0 960 25 1263 151 178 75 238 109
255 147 17 35 -5 71 -58 98 -81 40 -226 49 -756 46 -264 -1 -490 -4 -502 -7
-13 -2 -23 -1 -23 2 0 3 82 252 181 553 l181 547 326 7 326 7 176 40 c293 68
423 115 581 211 223 136 294 206 278 273 l-7 30 -1 -35 -1 -35 -22 32 c-39 56
-117 80 -308 98 -165 14 -617 26 -740 19z m505 -74 c251 -13 413 -29 452 -45
35 -15 56 -45 44 -64 -7 -11 -13 -10 -33 3 -14 9 -65 22 -114 28 -107 13 -734
17 -929 6 -77 -4 -295 -12 -485 -18 -277 -8 -935 -45 -1515 -85 -92 -7 -872
-40 -1295 -55 -157 -6 -357 -15 -445 -20 l-159 -10 -28 27 c-26 25 -27 28 -11
35 10 3 50 7 88 7 39 1 120 6 180 11 61 5 245 14 410 20 428 14 986 38 1155
50 80 6 177 12 215 15 39 3 178 9 310 15 132 6 362 17 510 25 595 33 1212 61
1360 63 55 1 186 -3 290 -8z m-1306 -178 c0 -9 -30 -98 -67 -197 -48 -129 -72
-181 -85 -183 -9 -2 -17 2 -17 10 0 7 27 89 60 182 34 93 59 170 57 173 -2 2
-192 -87 -422 -197 -229 -111 -423 -200 -431 -198 -7 2 190 100 439 220 249
119 455 214 459 211 5 -2 8 -12 7 -21z m-6904 -2 c3 -5 1 -10 -4 -10 -6 0 28
-79 76 -175 82 -163 92 -195 61 -182 -19 7 -192 352 -184 365 9 15 43 16 51 2z
m327 -212 c182 -118 275 -184 263 -186 -11 -3 -121 65 -282 174 -243 163 -285
194 -268 194 3 0 132 -82 287 -182z m4008 21 c77 -56 139 -103 138 -105 -13
-12 -72 21 -161 92 l-106 83 -33 -13 c-20 -9 -51 -39 -81 -80 -46 -62 -51 -66
-88 -66 -21 0 -39 2 -39 4 0 6 99 167 113 185 8 9 26 12 64 8 47 -5 67 -16
193 -108z m2627 -86 c-31 -89 -37 -98 -62 -101 -33 -4 -32 1 31 129 32 64 48
89 56 81 7 -7 0 -40 -25 -109z m-4663 -39 c59 -80 105 -148 101 -152 -4 -4
-18 6 -31 21 l-24 28 -48 -34 c-60 -43 -72 -50 -72 -40 0 4 25 26 55 47 33 24
52 43 47 50 -4 7 -40 55 -81 109 l-74 97 -152 -145 c-84 -80 -157 -145 -161
-145 -5 0 61 70 146 155 85 85 162 155 170 155 9 0 65 -66 124 -146z m-1956
-11 c43 -68 42 -80 -4 -69 -18 5 -31 20 -44 49 -31 73 -34 87 -13 87 11 0 34
-25 61 -67z m2377 27 c-22 -11 -53 -20 -69 -20 -29 0 -29 1 -11 14 24 16 49
23 90 25 29 1 29 1 -10 -19z m3587 -71 l56 -38 176 6 c114 4 176 3 176 -4 0
-8 -589 -285 -1146 -539 l-70 -32 -129 85 c-93 61 -125 87 -114 93 105 59 763
370 782 370 39 0 128 43 161 78 16 17 34 28 40 25 6 -4 36 -24 68 -44z m-3208
33 c3 -5 -13 -13 -35 -19 -30 -8 -39 -7 -39 3 0 20 63 34 74 16z m1517 -26
c131 -53 266 -63 843 -65 264 -1 482 -4 484 -6 5 -5 -705 -355 -719 -355 -7 0
-685 443 -698 456 -9 8 8 3 90 -30z m-1627 5 c10 -11 29 -22 43 -26 14 -3 50
-22 79 -41 30 -18 62 -34 72 -34 26 0 62 -37 62 -63 0 -12 7 -32 15 -43 8 -12
24 -47 35 -78 12 -31 26 -56 32 -56 5 0 7 -7 4 -16 -7 -19 21 -201 34 -226 13
-24 13 -23 -15 -54 -14 -15 -25 -35 -25 -45 0 -10 -11 -43 -25 -74 -13 -31
-22 -62 -18 -71 7 -18 -34 -64 -57 -64 -9 0 -47 -25 -85 -55 -38 -30 -73 -55
-77 -55 -5 0 -8 -6 -8 -14 0 -10 -17 -16 -52 -21 -29 -3 -79 -15 -111 -26 -87
-29 -158 -25 -271 16 -150 54 -149 53 -240 194 -91 139 -91 139 -106 324 -8
95 -7 122 4 140 7 12 16 37 19 54 4 18 17 50 31 70 14 21 28 54 31 75 7 36 23
48 69 48 19 0 78 41 139 99 32 31 46 36 90 38 42 2 170 11 293 21 11 1 29 -7
38 -17z m4106 4 c0 -8 -7 -15 -15 -15 -9 0 -12 6 -9 15 4 8 10 15 15 15 5 0 9
-7 9 -15z m-6789 -52 c3 -5 62 -159 129 -343 67 -184 133 -363 146 -397 28
-77 22 -83 -10 -10 -13 28 -95 196 -183 372 -87 176 -166 338 -176 359 l-18
39 52 -6 c29 -4 56 -10 60 -14z m6748 10 c0 -4 -83 -253 -182 -553 l-182 -545
-33 -3 c-30 -3 -32 -2 -26 21 3 14 70 261 148 549 l142 523 35 5 c62 10 99 11
98 3z m-3799 -9 c0 -5 -63 -34 -75 -34 -16 0 -1 20 23 28 31 12 52 14 52 6z
m3586 -11 c-24 -68 -371 -922 -373 -919 -1 1 10 43 27 92 16 49 81 253 145
454 64 201 121 370 127 377 6 7 26 13 45 13 29 0 34 -3 29 -17z m-6290 -7 c1
0 99 -201 218 -446 l216 -444 -27 -28 c-15 -15 -27 -27 -29 -25 -2 3 -507 904
-523 935 l-13 24 79 -7 c43 -4 79 -8 79 -9z m442 -238 c207 -127 384 -237 392
-245 13 -12 -10 -37 -169 -191 -102 -97 -189 -177 -194 -177 -5 0 -68 122
-139 270 -71 149 -163 339 -203 423 -41 83 -72 152 -69 152 2 0 174 -104 382
-232z m5702 195 c-5 -16 -77 -245 -159 -509 -83 -265 -155 -493 -160 -508 -21
-55 -45 -43 -461 232 -214 141 -390 259 -390 262 0 5 1157 547 1172 549 4 1 3
-11 -2 -26z m-3310 -32 l25 -7 -25 -6 c-95 -24 -154 -18 -97 10 25 12 61 13
97 3z m-1067 -53 c-3 -24 -11 -50 -18 -58 -7 -8 -23 -35 -35 -60 -13 -25 -35
-61 -50 -80 -26 -33 -27 -37 -14 -63 10 -18 15 -69 17 -163 3 -115 6 -138 20
-146 9 -5 24 -23 33 -41 9 -18 33 -57 53 -87 20 -30 42 -73 49 -96 12 -43 33
-58 89 -68 39 -7 101 -45 106 -66 2 -8 -5 -32 -15 -53 -18 -36 -20 -38 -41
-24 -12 8 -223 137 -470 286 l-447 273 132 102 c541 417 497 386 549 386 l47
0 -5 -42z m1297 34 c0 -5 -9 -17 -19 -26 -18 -17 -21 -17 -45 -1 -38 25 -32
35 19 35 25 0 45 -4 45 -8z m766 -43 c11 -23 14 -92 14 -369 0 -197 -4 -340
-9 -340 -5 0 -8 146 -8 349 l2 349 -24 34 c-15 20 -18 27 -7 19 9 -8 24 -27
32 -42z m-728 -4 c-17 -34 -25 -42 -35 -33 -7 6 -13 14 -13 18 0 15 42 60 56
60 11 0 9 -10 -8 -45z m-3003 -395 c126 -223 233 -413 239 -422 9 -14 3 -25
-29 -58 -31 -32 -46 -40 -75 -40 l-36 0 -169 458 c-92 251 -170 464 -173 472
-14 43 34 -39 243 -410z m6149 273 c-13 -49 -68 -251 -121 -450 l-96 -363 -68
0 -68 0 26 63 c14 34 93 226 175 427 83 201 154 375 159 388 19 50 16 17 -7
-65z m-3008 67 c15 -6 24 -13 21 -16 -9 -9 -77 6 -77 16 0 13 22 13 56 0z
m-401 -54 l30 -25 -47 17 c-49 17 -63 32 -30 32 9 0 31 -11 47 -24z m10 -106
c-31 -7 -55 -3 -55 9 0 4 19 4 43 2 40 -4 40 -5 12 -11z m1963 -140 c55 -36
101 -67 101 -70 1 -3 -143 -71 -319 -152 l-321 -148 -102 0 c-56 0 -107 4
-113 8 -6 4 -18 38 -26 76 l-16 69 322 158 c318 156 321 157 347 141 14 -9 71
-46 127 -82z m-1941 -12 c13 -12 23 -25 23 -29 0 -10 -69 33 -70 44 0 14 24 7
47 -15z m-1951 -25 c32 -20 44 -35 44 -52 0 -21 3 -23 30 -18 25 6 83 -27 452
-255 233 -143 437 -269 453 -279 l30 -19 -125 0 c-69 0 -230 5 -358 10 -128 6
-240 7 -248 2 -13 -7 -12 -12 7 -36 12 -15 19 -29 17 -31 -7 -7 -511 24 -723
45 -383 37 -521 50 -660 66 -250 27 -596 56 -760 62 l-160 7 30 20 c25 17 49
20 170 23 114 3 265 -8 825 -62 643 -62 1086 -97 1190 -95 78 2 6 17 -90 19
-47 1 -170 9 -275 18 l-190 17 -28 59 c-16 32 -25 61 -20 65 5 3 105 80 222
170 117 90 213 162 214 160 1 -2 12 -42 24 -89 41 -167 152 -400 189 -400 13
0 12 5 -5 33 -69 103 -136 267 -165 398 -13 57 -21 76 -34 76 -9 0 -111 -73
-227 -161 -115 -89 -215 -165 -222 -169 -8 -5 -19 6 -32 30 l-19 38 191 187
c106 103 196 187 201 187 5 1 28 -11 52 -26z m4405 -300 c208 -136 377 -248
376 -249 -1 -1 -175 -7 -387 -13 -212 -6 -446 -13 -520 -16 l-135 -4 70 15
c39 8 158 28 265 45 269 41 310 52 310 84 0 17 -99 43 -215 55 -143 15 -562
40 -679 40 -55 0 -96 3 -93 6 12 12 602 284 616 284 8 0 184 -111 392 -247z
m-2471 227 c12 -8 10 -10 -10 -10 -14 0 -32 5 -40 10 -12 8 -10 10 10 10 14 0
32 -5 40 -10z m-50 -182 c25 -41 26 -74 2 -38 -9 13 -25 31 -34 39 -22 19 -23
31 -3 31 8 0 24 -15 35 -32z m-69 -83 c33 -18 39 -25 23 -25 -26 0 -90 26 -99
40 -12 19 33 10 76 -15z m1444 -5 c319 -13 731 -36 885 -51 117 -11 245 -41
203 -47 -12 -2 -31 2 -42 7 -44 24 -536 49 -1118 58 -268 4 -403 3 -403 -4 0
-6 42 -28 93 -51 150 -66 164 -72 137 -66 -50 13 -252 108 -257 121 -8 19 -1
23 54 33 69 11 155 11 448 0z m-3715 -81 c12 -29 12 -33 -11 -50 -24 -18 -24
-18 -41 4 -23 29 -22 36 3 64 26 26 32 24 49 -18z m2568 -29 c21 -28 92 -184
92 -203 -1 -7 -25 35 -55 93 -30 58 -67 115 -82 127 l-28 23 27 -8 c14 -4 35
-18 46 -32z m-461 -18 c-3 -14 -6 -12 -14 8 -6 14 -8 29 -5 34 7 13 24 -22 19
-42z m-2191 -58 c-6 -7 -28 -9 -49 -7 l-39 5 33 34 33 34 17 -28 c12 -20 14
-30 5 -38z m127 21 c22 -46 22 -45 -11 -45 -16 0 -37 9 -47 20 -17 19 -17 20
6 39 32 27 33 27 52 -14z m1971 9 c7 -17 -6 -18 -22 -2 -7 7 -12 15 -12 20 0
12 28 -2 34 -18z m300 -45 c31 -61 32 -75 6 -89 -16 -9 -20 -8 -20 6 0 30 -32
84 -50 84 -10 0 -28 -8 -41 -19 -22 -18 -23 -19 -5 -46 10 -14 32 -33 49 -40
18 -8 25 -14 16 -15 -24 0 -109 72 -109 93 0 33 54 77 94 77 32 0 37 -4 60
-51z m184 -90 c40 -61 71 -113 69 -116 -4 -4 -157 212 -157 222 0 20 25 -11
88 -106z m1315 71 l72 -18 -141 -1 c-77 -1 -143 2 -146 5 -3 3 -4 14 -1 25 5
17 12 18 74 13 38 -4 102 -15 142 -24z m3049 2 c123 -14 188 -53 173 -102 -7
-22 -35 -35 -35 -16 0 27 -51 48 -143 57 -119 11 -624 11 -842 -1 -93 -5 -469
-16 -835 -25 -366 -8 -816 -22 -1000 -32 -557 -28 -1324 -16 -1376 22 -17 12
421 29 1546 61 300 8 685 19 855 24 171 6 434 13 585 17 151 3 277 8 279 10
10 8 709 -5 793 -15z m-5165 -42 l26 -20 -47 0 c-44 0 -45 1 -34 20 7 11 17
20 21 20 5 0 20 -9 34 -20z m468 -65 c24 -30 207 -198 238 -217 6 -4 8 -10 5
-14 -4 -4 -58 40 -120 96 -117 106 -177 170 -159 170 5 0 22 -16 36 -35z
m-211 -53 c-52 -49 -194 -160 -159 -125 84 83 186 173 197 173 7 -1 -10 -22
-38 -48z m899 -245 c182 -314 215 -363 250 -378 22 -9 26 -16 21 -33 -8 -27
-8 -27 -27 -20 -9 3 -34 38 -56 77 -22 40 -111 189 -199 332 -145 238 -165
275 -144 275 4 0 73 -114 155 -253z m-1083 100 c0 -2 -10 -12 -22 -23 l-23
-19 19 23 c18 21 26 27 26 19z m-60 -53 c-8 -8 -23 -20 -34 -25 -13 -7 -9 -1
9 15 34 29 43 33 25 10z m1063 -126 c76 -118 133 -223 116 -213 -13 7 -375
270 -391 284 -4 3 45 7 108 9 l114 2 53 -82z m797 -77 c0 -17 -4 -33 -10 -36
-6 -4 -10 8 -10 29 0 20 5 36 10 36 6 0 10 -13 10 -29z m-251 -229 c-5 -23
-13 -72 -19 -109 l-9 -68 4 75 c4 69 22 157 30 148 2 -2 0 -23 -6 -46z m88 -4
c4 -7 6 -21 5 -30 -2 -10 1 -18 5 -18 5 0 5 -35 1 -77 -3 -43 -7 -87 -7 -97
-1 -11 -4 -16 -8 -12 -5 4 -8 47 -8 94 0 48 -4 95 -9 105 -6 13 -4 17 9 17 9
0 13 5 9 11 -14 24 -37 -21 -44 -88 -7 -68 -7 -68 -9 -15 -2 80 32 147 56 110z
m-17 -98 c0 -5 -2 -10 -4 -10 -3 0 -8 5 -11 10 -3 6 -1 10 4 10 6 0 11 -4 11
-10z m47 -77 c-2 -16 -4 -3 -4 27 0 30 2 43 4 28 2 -16 2 -40 0 -55z m-119
-63 c0 -9 -3 -7 -8 5 -5 11 -8 29 -8 40 0 16 2 15 8 -5 4 -14 8 -32 8 -40z
m89 -10 c7 0 13 5 13 12 0 6 2 9 5 6 9 -9 -6 -38 -20 -38 -7 0 -20 15 -29 34
-21 44 -20 61 1 19 9 -18 23 -33 30 -33z m-28 -105 l16 -20 -24 20 c-13 11
-30 34 -37 52 -21 49 -16 53 8 8 11 -22 28 -49 37 -60z"/>
<path d="M7192 6160 c-123 -26 -230 -111 -285 -228 -30 -63 -32 -74 -32 -177
0 -103 2 -114 32 -175 41 -84 111 -155 193 -194 59 -28 74 -31 165 -31 93 0
105 2 166 32 226 112 298 407 150 614 -87 121 -250 188 -389 159z m243 -60
c64 -31 144 -111 174 -174 128 -275 -92 -581 -384 -534 -157 25 -275 145 -306
312 -27 145 60 319 193 387 68 35 87 39 183 35 70 -2 101 -8 140 -26z"/>
<path d="M7195 6109 c-22 -5 -44 -14 -48 -18 -5 -5 0 -29 11 -55 20 -44 23
-46 61 -46 l41 0 0 65 c0 71 2 69 -65 54z"/>
<path d="M7280 6063 c0 -59 1 -60 33 -70 28 -8 25 -9 -31 -9 -44 -1 -67 -5
-73 -15 -6 -10 -9 -10 -9 -1 0 21 -26 13 -40 -12 -22 -42 -50 -40 -95 4 -23
22 -44 40 -48 40 -8 0 -57 -71 -57 -83 0 -4 21 -17 47 -28 l48 -20 14 20 c7
12 18 21 24 21 7 0 7 -4 -1 -12 -7 -7 -12 -28 -12 -47 0 -24 -3 -31 -9 -23 -6
10 -10 8 -14 -10 -22 -82 16 -188 86 -239 22 -16 47 -29 56 -30 12 0 12 -2 -3
-8 -11 -4 -29 -30 -42 -59 l-22 -51 31 -10 c18 -5 47 -12 65 -16 l32 -7 0 66
c0 37 4 66 10 66 6 0 10 -29 10 -66 l0 -67 53 7 c28 4 55 10 58 14 4 4 -4 32
-18 63 -23 52 -26 55 -56 52 -23 -2 -19 0 15 10 58 17 109 55 140 104 19 31
23 52 23 115 0 69 -3 80 -30 119 -27 39 -77 81 -106 91 -5 2 2 27 16 57 28 57
27 81 -2 81 -10 0 -35 3 -55 6 l-38 7 0 -60z m-43 -153 c-15 -22 -16 -22 -14
13 2 31 4 34 16 22 11 -11 11 -17 -2 -35z m-49 -22 c7 -7 12 -21 12 -33 0 -12
-5 -26 -12 -33 -7 -7 -21 -12 -33 -12 -12 0 -26 5 -33 12 -7 7 -12 21 -12 33
0 12 5 26 12 33 7 7 21 12 33 12 12 0 26 -5 33 -12z m119 -20 c33 -16 57 -69
49 -110 -13 -69 -91 -107 -154 -74 -38 20 -59 53 -43 69 8 8 11 7 11 -4 0 -20
39 -56 65 -60 56 -8 96 24 108 88 7 36 -7 53 -22 26 -9 -17 -10 -17 -30 1 -31
28 -28 50 7 41 19 -4 24 -3 17 4 -6 6 -25 14 -43 17 -27 5 -31 4 -26 -9 7 -20
-23 -77 -41 -77 -11 0 -10 5 5 20 11 11 20 33 20 48 0 16 3 31 6 34 6 7 41 0
71 -14z m-159 -113 c-11 -25 -41 -34 -53 -15 -3 5 0 7 9 4 8 -3 19 3 26 15 16
30 32 26 18 -4z"/>
<path d="M7163 5883 c4 -3 2 -12 -4 -20 -10 -11 -15 -11 -27 -1 -12 11 -14 10
-11 -1 9 -27 37 -37 54 -20 16 16 11 49 -8 49 -6 0 -7 -3 -4 -7z"/>
<path d="M7400 6033 l-23 -56 24 -18 c13 -10 26 -19 29 -19 14 0 82 80 78 92
-3 7 -23 23 -45 35 l-40 22 -23 -56z"/>
<path d="M7078 6053 c-21 -14 -38 -29 -38 -32 0 -4 18 -24 40 -46 39 -38 40
-38 60 -20 11 10 20 23 20 29 0 17 -32 96 -39 95 -3 0 -23 -12 -43 -26z"/>
<path d="M7486 5970 c-41 -46 -43 -51 -18 -74 18 -15 22 -15 70 5 29 12 52 26
52 32 0 14 -49 77 -59 77 -5 0 -25 -18 -45 -40z"/>
<path d="M7545 5888 c-27 -12 -51 -22 -52 -23 -1 -1 2 -18 8 -38 l10 -37 59 0
c52 0 60 3 60 19 0 20 -19 82 -29 93 -3 4 -28 -3 -56 -14z"/>
<path d="M6945 5881 c-3 -6 -9 -34 -12 -62 l-6 -52 54 7 c29 4 55 8 56 10 2 1
6 16 9 33 5 27 2 33 -22 46 -45 23 -72 29 -79 18z"/>
<path d="M7510 5748 c0 -13 -3 -32 -6 -44 -5 -17 3 -24 47 -43 29 -12 56 -18
60 -14 5 5 11 34 15 66 l7 57 -62 0 c-57 0 -61 -2 -61 -22z"/>
<path d="M6932 5709 c3 -27 9 -54 14 -59 5 -5 29 0 57 12 40 18 48 25 43 42
-3 12 -6 29 -6 39 0 14 -9 17 -56 17 l-57 0 5 -51z"/>
<path d="M6998 5647 l-46 -22 16 -31 c9 -16 25 -41 35 -54 l17 -25 41 42 42
41 -22 36 c-13 20 -26 36 -29 35 -4 0 -28 -10 -54 -22z"/>
<path d="M7471 5633 l-23 -35 43 -44 c24 -24 46 -44 49 -44 13 0 62 102 54
110 -5 5 -29 17 -54 28 l-46 20 -23 -35z"/>
<path d="M7076 5543 l-38 -43 23 -20 c51 -44 55 -43 78 10 26 61 26 64 -1 82
-22 13 -25 11 -62 -29z"/>
<path d="M7403 5566 c-18 -11 -33 -25 -33 -29 0 -21 44 -107 55 -107 15 0 95
57 95 68 0 4 -19 26 -42 49 l-43 41 -32 -22z"/>
<path d="M3646 6810 c-98 -5 -180 -11 -183 -13 -2 -3 110 -2 250 1 350 7 995
-21 1572 -68 137 -11 665 -46 830 -55 61 -3 136 -8 168 -11 l59 -6 -28 -29
c-19 -20 -23 -29 -13 -29 9 0 28 13 43 29 l28 30 -38 9 c-22 6 -86 13 -144 16
-58 4 -231 15 -385 26 -1299 92 -1812 116 -2159 100z"/>
<path d="M7790 4710 c-90 -47 -225 -93 -339 -114 -88 -17 -309 -21 -393 -7
-42 7 -80 0 -68 -13 3 -2 52 -10 110 -17 182 -21 373 1 550 63 87 31 200 84
235 112 l20 15 -20 0 c-11 0 -54 -18 -95 -39z"/>
<path d="M6727 4545 c-26 -46 -52 -87 -57 -90 -4 -3 -18 11 -31 31 -26 42 -77
67 -117 58 -106 -25 -183 -199 -168 -381 7 -95 30 -150 78 -195 71 -66 138
-60 186 16 16 24 34 70 41 103 7 32 45 129 84 216 74 166 73 166 182 242 44
31 47 35 25 35 -14 0 -36 -9 -50 -20 -35 -27 -43 -25 -25 9 l15 29 -47 16
c-26 9 -51 16 -57 16 -6 0 -33 -38 -59 -85z m22 -22 c-28 -54 -55 -100 -59
-103 -4 -3 -16 -33 -25 -68 -20 -72 -48 -112 -76 -112 -16 0 -19 4 -14 23 4
12 12 29 19 38 75 107 100 147 140 227 25 50 51 92 57 92 6 0 -13 -44 -42 -97z
m-141 -156 c2 -12 -1 -15 -12 -11 -22 8 -36 -34 -36 -107 0 -74 21 -129 49
-129 24 0 25 -1 9 -35 -16 -35 -55 -34 -69 2 -33 88 -30 224 6 279 18 28 48
28 53 1z"/>
<path d="M6900 4611 c0 -17 30 -25 43 -12 8 8 8 11 0 11 -6 0 -18 3 -27 6 -9
3 -16 1 -16 -5z"/>
</g>
</svg>
